<svg xmlns="http://www.w3.org/2000/svg" viewBox="0 0 4.97 3.61"><title>signal</title><g id="Layer_2" data-name="Layer 2"><g id="Layer_1-2" data-name="Layer 1"><path d="M1,3.31a1.61,1.61,0,0,1-.32-.37A2.15,2.15,0,0,1,.46,1,2.08,2.08,0,0,1,.93.27.16.16,0,0,0,.93,0a.16.16,0,0,0-.22,0A2.51,2.51,0,0,0,0,1.43.86.86,0,0,1,0,1.6V2s0,.05,0,.08A2.59,2.59,0,0,0,.69,3.56a.21.21,0,0,0,.25,0A.17.17,0,0,0,1,3.31Z"/><path d="M5,1.6c0-.11,0-.22,0-.33A2.32,2.32,0,0,0,4.22.08a.14.14,0,0,0-.15,0A.15.15,0,0,0,4,.31a2,2,0,0,1,.62,1.23,2.19,2.19,0,0,1-.19,1.21,2.53,2.53,0,0,1-.43.6.15.15,0,0,0,0,.18.21.21,0,0,0,.3,0,2.57,2.57,0,0,0,.67-1.37A.47.47,0,0,1,5,2v-.4S5,1.61,5,1.6Z"/><path d="M1.38,2.88A.3.3,0,0,1,1.3,2.8,1.47,1.47,0,0,1,.94,1.67,1.43,1.43,0,0,1,1.38.74a.14.14,0,0,0,0-.22.14.14,0,0,0-.22,0A1.71,1.71,0,0,0,.62,1.81c0,.07,0,.13,0,.2V2a2,2,0,0,0,.49,1.07.17.17,0,0,0,.14.07.22.22,0,0,0,.17-.12A.16.16,0,0,0,1.38,2.88Z"/><path d="M4.33,1.55a1.7,1.7,0,0,0-.54-1,.15.15,0,0,0-.22,0,.15.15,0,0,0,0,.23,1.12,1.12,0,0,1,.18.2A1.55,1.55,0,0,1,3.7,2.78a1.07,1.07,0,0,1-.14.16.14.14,0,0,0,0,.2.14.14,0,0,0,.19,0,1.74,1.74,0,0,0,.59-1.33A2.46,2.46,0,0,0,4.33,1.55Z"/><path d="M1.82,2.46a.69.69,0,0,1-.11-.13.92.92,0,0,1,.11-1.16A.15.15,0,0,0,1.88,1,.15.15,0,0,0,1.77.91a.14.14,0,0,0-.16,0,1.15,1.15,0,0,0-.37.85,1.36,1.36,0,0,0,.31.87.19.19,0,0,0,.18.07.17.17,0,0,0,.14-.12A.14.14,0,0,0,1.82,2.46Z"/><path d="M3.72,1.65A1.1,1.1,0,0,0,3.35.94a.16.16,0,0,0-.22,0,.15.15,0,0,0,0,.22,1,1,0,0,1,.13.16,1,1,0,0,1-.07,1.08l-.09.1a.14.14,0,0,0,0,.2.14.14,0,0,0,.19,0,1.15,1.15,0,0,0,.4-.89C3.73,1.76,3.72,1.71,3.72,1.65Z"/><path d="M2.48,1.5a.3.3,0,0,0-.31.31.29.29,0,0,0,.31.31.29.29,0,0,0,.31-.31A.29.29,0,0,0,2.48,1.5Z"/></g></g></svg>